<?xml version="1.0" encoding="UTF-8"?>
<svg version="1.1" xmlns="http://www.w3.org/2000/svg" width="300" height="300">
<path d="M0 0 C99 0 198 0 300 0 C300 99 300 198 300 300 C201 300 102 300 0 300 C0 201 0 102 0 0 Z " fill="#FED72C" transform="translate(0,0)"/>
<path d="M0 0 C33.33 0 66.66 0 101 0 C101 10.89 101 21.78 101 33 C78.89 33 56.78 33 34 33 C34 44.22 34 55.44 34 67 C51.49 67 68.98 67 87 67 C87 77.89 87 88.78 87 100 C69.51 100 52.02 100 34 100 C34 124.42 34 148.84 34 174 C22.78 174 11.56 174 0 174 C0 116.58 0 59.16 0 0 Z " fill="#030404" transform="translate(151,63)"/>
<path d="M0 0 C11.22 0 22.44 0 34 0 C34 46.2 34 92.4 34 140 C47.2 140 60.4 140 74 140 C74 151.22 74 162.44 74 174 C49.58 174 25.16 174 0 174 C0 116.58 0 59.16 0 0 Z " fill="#020403" transform="translate(63,63)"/>
</svg>
