<svg xmlns="http://www.w3.org/2000/svg" width="300" height="65" fill="none"><path fill="#ffc13c" d="M0 0h300v57a8 8 0 0 1-8 8H8a8 8 0 0 1-8-8z"/><path fill="#202e31" d="M23.492 48V16.05h3.15v29.16h18.45V48zm28.485 0V16.05h3.15V48zm13.412 0V16.05h20.97v2.79H68.54v11.745h15.03v2.61H68.54V48h-3.15Zm51.429-29.16h-11.385V48h-3.15V18.84H90.898v-2.79h25.92zM123.854 48V16.05h20.97v2.79h-17.82v11.745h15.03v2.61h-15.03V48zm28.749 0V16.05h3.15V48zm36.092-29.16H177.31V48h-3.15V18.84h-11.385v-2.79h25.92zm29.716 0h-11.385V48h-3.15V18.84h-11.385v-2.79h25.92zm28.501 26.37V48h-21.465V16.05h21.06v2.79h-17.91v11.52h15.615v2.655h-15.615V45.21zm8.207 2.79V16.05h13.5q2.07 0 3.78.855a9.3 9.3 0 0 1 2.97 2.34q1.305 1.44 1.98 3.24.72 1.755.72 3.6 0 2.295-.9 4.32a9.1 9.1 0 0 1-2.475 3.42q-1.575 1.395-3.735 1.845l7.83 12.33h-3.555l-7.515-11.79h-9.45V48zm3.15-14.58h10.44q1.89 0 3.285-1.035t2.16-2.7q.765-1.71.765-3.6 0-1.935-.9-3.555-.855-1.665-2.34-2.655a5.4 5.4 0 0 0-3.24-1.035h-10.17z"/></svg>